<svg width="19" height="20" viewBox="0 0 19 20" fill="none" xmlns="http://www.w3.org/2000/svg">
<mask id="path-1-inside-1" fill="white">
<path fill-rule="evenodd" clip-rule="evenodd" d="M10 10C12.7614 10 15 7.76142 15 5C15 2.23858 12.7614 0 10 0C7.23858 0 5 2.23858 5 5C5 7.76142 7.23858 10 10 10ZM13 5C13 6.65685 11.6569 8 10 8C8.34315 8 7 6.65685 7 5C7 3.34315 8.34315 2 10 2C11.6569 2 13 3.34315 13 5ZM9.12 10.8798C4.50284 10.8798 0.759888 14.6227 0.759888 19.2399C0.759888 19.6596 1.10016 19.9999 1.5199 19.9999H17.4801C17.8999 19.9999 18.2401 19.6596 18.2401 19.2399C18.2401 14.6227 14.4972 10.8798 9.88001 10.8798H9.12Z"/>
</mask>
<path d="M13 5C13 6.65685 11.6569 8 10 8V12C13.866 12 17 8.86599 17 5H13ZM10 2C11.6569 2 13 3.34315 13 5H17C17 1.13401 13.866 -2 10 -2V2ZM7 5C7 3.34315 8.34315 2 10 2V-2C6.13401 -2 3 1.13401 3 5H7ZM10 8C8.34315 8 7 6.65685 7 5H3C3 8.86599 6.13401 12 10 12V8ZM10 10C12.7614 10 15 7.76142 15 5H11C11 5.55228 10.5523 6 10 6V10ZM5 5C5 7.76142 7.23858 10 10 10V6C9.44772 6 9 5.55228 9 5H5ZM10 0C7.23858 0 5 2.23858 5 5H9C9 4.44772 9.44772 4 10 4V0ZM15 5C15 2.23858 12.7614 0 10 0V4C10.5523 4 11 4.44772 11 5H15ZM2.75989 19.2399C2.75989 15.7273 5.60741 12.8798 9.12 12.8798V8.87976C3.39827 8.87976 -1.24011 13.5181 -1.24011 19.2399H2.75989ZM1.5199 17.9999C2.20473 17.9999 2.75989 18.555 2.75989 19.2399H-1.24011C-1.24011 20.7642 -0.00441509 21.9999 1.5199 21.9999V17.9999ZM17.4801 17.9999H1.5199V21.9999H17.4801V17.9999ZM16.2401 19.2399C16.2401 18.555 16.7953 17.9999 17.4801 17.9999V21.9999C19.0044 21.9999 20.2401 20.7642 20.2401 19.2399H16.2401ZM9.88001 12.8798C13.3926 12.8798 16.2401 15.7273 16.2401 19.2399H20.2401C20.2401 13.5181 15.6017 8.87976 9.88001 8.87976V12.8798ZM9.12 12.8798H9.88001V8.87976H9.12V12.8798Z" fill="#FE7E40" mask="url(#path-1-inside-1)"/>
</svg>
