<svg width="23" height="19" viewBox="0 0 23 19" fill="none" xmlns="http://www.w3.org/2000/svg">
<path fill-rule="evenodd" clip-rule="evenodd" d="M2 16.0099V2.03453C5.02033 2.1692 7.1934 2.59484 10.2299 3.89596V16.3941C7.33975 15.8781 4.98264 15.7623 2 16.0099ZM10.6797 18.5137C7.22832 17.8326 4.73288 17.72 1.12636 18.1016C0.528297 18.1649 0 17.7009 0 17.0995V0.993939C0 0.437488 0.455263 -0.0130494 1.01155 0.000288714C4.96556 0.0950936 7.57001 0.530864 11.4319 2.23808C15.2937 0.530915 17.8981 0.0951536 21.8521 0.000349749C22.4084 -0.0129884 22.8636 0.437549 22.8636 0.994V17.0995C22.8636 17.7009 22.3354 18.1649 21.7373 18.1017C18.1307 17.72 15.6352 17.8327 12.1837 18.5138C11.9716 18.655 11.7054 18.7183 11.432 18.6675C11.1583 18.7184 10.8919 18.655 10.6797 18.5137ZM12.6337 16.3942C15.5239 15.8782 17.881 15.7623 20.8636 16.01V2.03459C17.8433 2.16926 15.6702 2.59491 12.6337 3.89602V16.3942Z" fill="#FFB5A0"/>
</svg>
