<svg width="22" height="23" viewBox="0 0 22 23" fill="none" xmlns="http://www.w3.org/2000/svg">
<path fill-rule="evenodd" clip-rule="evenodd" d="M6.04176 3.52525C6.40224 3.88573 6.9867 3.88573 7.34719 3.52525C7.70767 3.16477 7.70767 2.58031 7.34719 2.21982C6.9867 1.85934 6.40224 1.85934 6.04176 2.21982C5.68127 2.58031 5.68127 3.16477 6.04176 3.52525ZM5.33465 4.23236C6.08566 4.98336 7.30329 4.98336 8.0543 4.23236C8.8053 3.48135 8.8053 2.26373 8.0543 1.51272C7.32903 0.78746 6.16861 0.762594 5.4135 1.43812C4.88112 1.29666 4.36655 1.20957 3.87906 1.18642C2.85787 1.13793 1.84381 1.3697 1.10666 2.10685C0.369517 2.84399 0.137741 3.85805 0.186233 4.87924C0.234708 5.90005 0.563537 7.0396 1.08495 8.21277C1.5701 9.30437 2.24138 10.4683 3.07179 11.6526C2.24131 12.8371 1.56998 14.0011 1.0848 15.0927C0.563389 16.2659 0.234559 17.4055 0.186086 18.4263C0.137592 19.4474 0.369369 20.4615 1.10651 21.1987C1.84366 21.9358 2.85772 22.1676 3.87891 22.1191C4.89972 22.0706 6.03928 21.7418 7.21245 21.2204C8.3041 20.7352 9.46809 20.0639 10.6525 19.2334C11.6419 19.9272 12.6172 20.5099 13.5479 20.9658C13.6301 21.2903 13.7982 21.5976 14.0521 21.8515C14.8031 22.6025 16.0207 22.6025 16.7717 21.8515C17.5227 21.1005 17.5227 19.8829 16.7717 19.1319C16.0549 18.415 14.9129 18.3824 14.1574 19.034C13.5714 18.7328 12.9596 18.3729 12.3326 17.9582C13.1489 17.291 13.9633 16.5552 14.7591 15.7594C15.555 14.9635 16.2908 14.1491 16.958 13.3327C17.5527 14.232 18.0347 15.0997 18.3926 15.9051C18.8556 16.9466 19.0886 17.834 19.1212 18.5212C19.1538 19.208 18.986 19.5829 18.7843 19.7845C18.5827 19.9861 18.2078 20.154 17.521 20.1214C17.4482 20.1179 17.3731 20.1122 17.2958 20.1042C17.421 20.716 17.2463 21.3769 16.7717 21.8515C16.7102 21.913 16.6456 21.9695 16.5784 22.0209C16.8684 22.0728 17.1516 22.1061 17.4262 22.1192C18.4473 22.1676 19.4614 21.9359 20.1985 21.1987C20.9357 20.4616 21.1675 19.4475 21.119 18.4263C21.0705 17.4055 20.7417 16.266 20.2203 15.0928C19.7351 14.0011 19.0637 12.8371 18.2332 11.6527C19.0637 10.4683 19.735 9.30433 20.2201 8.21271C20.7415 7.03954 21.0704 5.89998 21.1188 4.87918C21.1673 3.85799 20.9356 2.84393 20.1984 2.10678C19.4613 1.36964 18.4472 1.13786 17.426 1.18636C16.4052 1.23483 15.2657 1.56366 14.0925 2.08507C13.0008 2.57024 11.8369 3.24154 10.6525 4.07199C9.96327 3.58874 9.28096 3.15937 8.61579 2.78922C8.63818 3.30877 8.45103 3.83566 8.05433 4.23236C7.93115 4.35554 7.79542 4.45851 7.65126 4.54128C8.08119 4.78082 8.52286 5.04994 8.97241 5.34721C8.15608 6.01438 7.34165 6.75021 6.5458 7.54606C5.74998 8.34188 5.01416 9.15628 4.34702 9.97258C3.75243 9.07341 3.27046 8.20576 2.91257 7.4005C2.44966 6.35895 2.21661 5.47155 2.18398 4.78438C2.15137 4.0976 2.31926 3.72268 2.52088 3.52106C2.72249 3.31944 3.09741 3.15156 3.78419 3.18417C4.09418 3.19889 4.44492 3.25439 4.83217 3.35339C4.91499 3.67543 5.08249 3.9802 5.33465 4.23236ZM19.1211 4.78431C19.1537 4.09753 18.9858 3.72261 18.7842 3.521C18.5826 3.31938 18.2077 3.15149 17.5209 3.1841C16.8337 3.21674 15.9463 3.44978 14.9048 3.91269C14.0995 4.2706 13.2318 4.75259 12.3326 5.34721C13.1489 6.01439 13.9634 6.75025 14.7593 7.54613C15.5551 8.34193 16.2909 9.15631 16.958 9.97259C17.5526 9.0734 18.0346 8.20571 18.3925 7.40043C18.8554 6.35889 19.0885 5.47148 19.1211 4.78431ZM7.96002 8.96027C7.06939 9.8509 6.26704 10.7577 5.56331 11.6527C6.26707 12.5477 7.06947 13.4545 7.96016 14.3452C8.85077 15.2358 9.75751 16.0382 10.6525 16.7419C11.5475 16.0382 12.4543 15.2358 13.3449 14.3452C14.2356 13.4545 15.038 12.5477 15.7417 11.6527C15.038 10.7577 14.2357 9.85095 13.3451 8.96034C12.4544 8.06965 11.5475 7.26726 10.6525 6.56351C9.75746 7.26725 8.85068 8.06961 7.96002 8.96027ZM2.91242 15.905C3.27034 15.0997 3.75235 14.232 4.347 13.3327C5.01419 14.1491 5.75006 14.9636 6.54595 15.7594C7.34175 16.5552 8.15614 17.2911 8.97242 17.9582C8.07319 18.5528 7.20548 19.0348 6.40017 19.3927C5.35862 19.8557 4.47122 20.0887 3.78405 20.1213C3.09727 20.1539 2.72235 19.9861 2.52073 19.7844C2.31911 19.5828 2.15122 19.2079 2.18384 18.5211C2.21647 17.834 2.44951 16.9465 2.91242 15.905ZM9.29279 13.0126C10.0438 13.7636 11.2614 13.7636 12.0124 13.0126C12.7634 12.2616 12.7634 11.044 12.0124 10.293C11.2614 9.54199 10.0438 9.54199 9.29279 10.293C8.54178 11.044 8.54178 12.2616 9.29279 13.0126ZM16.0646 21.1444C15.7041 21.5049 15.1197 21.5049 14.7592 21.1444C14.3987 20.7839 14.3987 20.1995 14.7592 19.839C15.1197 19.4785 15.7041 19.4785 16.0646 19.839C16.4251 20.1995 16.4251 20.7839 16.0646 21.1444Z" fill="#FFB5A0"/>
</svg>
