<svg width="21" height="22" viewBox="0 0 21 22" fill="none" xmlns="http://www.w3.org/2000/svg">
<path fill-rule="evenodd" clip-rule="evenodd" d="M10.7647 0.794922C6.33679 0.794922 2.83825 4.56764 2.83825 9.10619L2.83825 12.16C2.30985 12.3387 1.86815 12.657 1.5306 13.063C1.01658 13.6813 0.769374 14.4672 0.745669 15.2158C0.722012 15.9629 0.918598 16.7636 1.40863 17.4017C1.92078 18.0685 2.70996 18.4949 3.6959 18.4949H8.07275C8.12209 20 9.35772 21.2049 10.8748 21.2049C12.3918 21.2049 13.6275 20 13.6768 18.4949H17.8458C18.8278 18.4949 19.6099 18.0629 20.1135 17.3941C20.5944 16.7554 20.7841 15.9563 20.7585 15.2131C20.7329 14.4681 20.4883 13.6849 19.9809 13.0675C19.6471 12.6612 19.2088 12.3407 18.6831 12.1607C18.6789 11.496 18.6795 10.8589 18.6817 10.3404C18.6833 9.97503 18.6856 9.66918 18.6876 9.45484L18.6901 9.20611L18.6908 9.1408L18.691 9.12423L18.6911 9.12013L18.6911 9.11914L18.6911 9.11892V9.11888L18.6912 9.11888V9.10619C18.6912 4.56764 15.1926 0.794922 10.7647 0.794922ZM4.83825 9.10619C4.83825 5.56894 7.54187 2.79492 10.7647 2.79492C13.9857 2.79492 16.6881 5.5658 16.6912 9.10017L16.691 9.11703L16.6902 9.18406L16.6877 9.43662C16.6857 9.65364 16.6833 9.96275 16.6818 10.3318C16.6786 11.0694 16.6786 12.0492 16.6913 13.0132L16.7042 14H17.6912C18.04 14 18.2693 14.1347 18.4357 14.3372C18.6209 14.5626 18.7467 14.9031 18.7597 15.2818C18.7728 15.6623 18.6694 15.987 18.5157 16.1911C18.3848 16.365 18.1909 16.4949 17.8458 16.4949H3.6959C3.33391 16.4949 3.12993 16.3594 2.9948 16.1835C2.83755 15.9787 2.73274 15.6558 2.74467 15.2791C2.75655 14.904 2.88191 14.5661 3.06855 14.3416C3.23651 14.1396 3.4732 14 3.83825 14H4.83825V13L4.83825 9.10619Z" fill="#FE7E40"/>
</svg>
