<svg width="24" height="26" viewBox="0 0 24 26" fill="none" xmlns="http://www.w3.org/2000/svg">
<path fill-rule="evenodd" clip-rule="evenodd" d="M11.6665 0C9.64145 0 7.99983 1.64162 7.99983 3.66666V4.55556C7.99983 6.1474 9.01421 7.50231 10.4318 8.00916C7.09489 8.18877 4.44441 10.9515 4.44441 14.3332C4.44441 15.7093 5.05456 16.9429 6.01908 17.7782C4.63656 17.7877 3.13229 17.9722 1.96735 18.6096C1.35026 18.9473 0.801109 19.4272 0.438178 20.0952C0.0738202 20.7658 -0.0610272 21.5492 0.0251266 22.4214C0.110648 23.2871 0.387375 24.025 0.864161 24.6086C1.34074 25.1921 1.96174 25.5536 2.62277 25.7595C3.90119 26.1577 5.42449 26.0046 6.76739 25.7107C8.14121 25.41 9.47839 24.9262 10.4602 24.525C10.9541 24.3232 11.3646 24.1395 11.6531 24.0056L11.6666 23.9994L11.6801 24.0056C11.9686 24.1395 12.3792 24.3232 12.873 24.525C13.8548 24.9262 15.192 25.41 16.5658 25.7107C17.9087 26.0046 19.432 26.1577 20.7104 25.7595C21.3715 25.5536 21.9925 25.1921 22.469 24.6086C22.9458 24.025 23.2226 23.2871 23.3081 22.4214C23.3943 21.5492 23.2594 20.7658 22.8951 20.0952C22.5321 19.4272 21.983 18.9473 21.3659 18.6096C20.2009 17.9722 18.6966 17.7877 17.3141 17.7782C18.2786 16.9429 18.8887 15.7093 18.8887 14.3332C18.8887 10.9514 16.2382 8.18869 12.9012 8.00916C14.3188 7.5023 15.3332 6.14739 15.3332 4.55556V3.66667C15.3332 1.64162 13.6915 0 11.6665 0ZM11.6665 9.99988H10.7777C8.38451 9.99988 6.44441 11.94 6.44441 14.3332C6.44441 15.7446 7.58857 16.8888 8.99996 16.8888H10.5353V18.2253C10.8796 18.2892 11.1729 18.3498 11.3989 18.399C11.5027 18.4216 11.5925 18.4418 11.6666 18.4589C11.7407 18.4418 11.8305 18.4216 11.9343 18.399C12.1603 18.3498 12.4536 18.2892 12.7978 18.2253V16.8888H14.3332C15.7446 16.8888 16.8887 15.7446 16.8887 14.3332C16.8887 11.94 14.9486 9.99988 12.5554 9.99988H11.6666H11.6665ZM9.99983 3.66666C9.99983 2.74619 10.746 2 11.6665 2C12.587 2 13.3332 2.74619 13.3332 3.66667V4.55556C13.3332 5.47603 12.587 6.22222 11.6665 6.22222C10.746 6.22222 9.99983 5.47603 9.99983 4.55556V3.66666ZM12.1184 21.9982L12.1182 21.9981L12.1179 21.9979L12.1179 21.9979L11.6666 21.7695L11.2154 21.9979L11.2153 21.9979L11.215 21.9981L11.2148 21.9982L11.211 22.0001L11.1929 22.0091C11.1761 22.0175 11.1502 22.0302 11.1157 22.047C11.0468 22.0806 10.9436 22.13 10.8111 22.1915C10.5459 22.3146 10.1641 22.4855 9.70364 22.6736C8.77681 23.0524 7.55747 23.4904 6.33976 23.7569C5.09111 24.0302 3.98786 24.0899 3.21755 23.8499C2.85423 23.7368 2.59533 23.5665 2.41308 23.3434C2.23103 23.1205 2.07 22.7771 2.01544 22.2247C1.96151 21.6788 2.0543 21.31 2.19555 21.05C2.33824 20.7874 2.57268 20.5582 2.92741 20.3641C3.67396 19.9556 4.81512 19.7778 6.13332 19.7778C7.42125 19.7778 8.74363 19.9458 9.7566 20.1182C10.2601 20.2038 10.6804 20.2894 10.9735 20.3532C11.1198 20.3851 11.2341 20.4114 11.3106 20.4295C11.3489 20.4386 11.3777 20.4456 11.3964 20.4502L11.4167 20.4552L11.421 20.4562L11.4213 20.4563L11.4216 20.4564L11.4216 20.4564L11.6666 20.5184L11.9116 20.4564L11.9116 20.4564L11.912 20.4563L11.9122 20.4562L11.9165 20.4552L11.9368 20.4502C11.9555 20.4456 11.9843 20.4386 12.0226 20.4295C12.0991 20.4114 12.2134 20.3851 12.3598 20.3532C12.6528 20.2894 13.0732 20.2038 13.5766 20.1182C14.5896 19.9458 15.912 19.7778 17.1999 19.7778C18.5181 19.7778 19.6593 19.9556 20.4058 20.3641C20.7606 20.5582 20.995 20.7874 21.1377 21.05C21.2789 21.31 21.3717 21.6788 21.3178 22.2247C21.2632 22.7771 21.1022 23.1205 20.9201 23.3434C20.7379 23.5665 20.479 23.7368 20.1157 23.8499C19.3454 24.0899 18.2421 24.0302 16.9935 23.7569C15.7757 23.4904 14.5564 23.0524 13.6296 22.6736C13.1691 22.4855 12.7874 22.3146 12.5221 22.1915C12.3896 22.13 12.2865 22.0806 12.2175 22.047L12.176 22.0267L12.1404 22.0091L12.1222 22.0001L12.1184 21.9982Z" fill="#FFB5A0"/>
</svg>
