<svg width="18" height="20" viewBox="0 0 18 20" fill="none" xmlns="http://www.w3.org/2000/svg">
<path fill-rule="evenodd" clip-rule="evenodd" d="M18 2.23157C18 0.961807 16.8321 0.0134724 15.5894 0.274183L6.58936 2.16229C5.66322 2.35659 5 3.17338 5 4.11968V13.3369C4.54537 13.1209 4.0368 13.0001 3.5 13.0001C1.567 13.0001 0 14.5671 0 16.5001C0 18.4331 1.567 20.0001 3.5 20.0001C5.433 20.0001 7 18.4331 7 16.5001C7 16.3303 6.98791 16.1633 6.96454 16H7V4.11968L16 2.23157L16 11.3369C15.5454 11.121 15.0368 11.0001 14.5 11.0001C12.567 11.0001 11 12.5671 11 14.5001C11 16.4331 12.567 18.0001 14.5 18.0001C16.433 18.0001 18 16.4331 18 14.5001C18 14.4225 17.9975 14.3456 17.9925 14.2692H18V2.23157ZM14.5 16.0001C15.3284 16.0001 16 15.3285 16 14.5001C16 13.6717 15.3284 13.0001 14.5 13.0001C13.6716 13.0001 13 13.6717 13 14.5001C13 15.3285 13.6716 16.0001 14.5 16.0001ZM3.5 18.0001C4.32843 18.0001 5 17.3285 5 16.5001C5 15.6717 4.32843 15.0001 3.5 15.0001C2.67157 15.0001 2 15.6717 2 16.5001C2 17.3285 2.67157 18.0001 3.5 18.0001Z" fill="#FE7E40"/>
</svg>
