<svg width="162" height="181" viewBox="0 0 162 181" fill="none" xmlns="http://www.w3.org/2000/svg">
<path fill-rule="evenodd" clip-rule="evenodd" d="M79.6421 21.0097C79.6421 21.8437 80.3371 22.5387 81.171 22.5387C82.005 22.5387 82.7 21.8437 82.7 21.0097C82.7 21.0097 82.561 11.0019 81.171 0.299011C79.7811 11.0019 79.6421 21.0097 79.6421 21.0097ZM66.8542 53.5909C67.2156 55.4813 67.716 57.316 68.3832 59.0952C68.133 57.2048 68.0218 55.3423 67.994 53.4519C67.8828 46.8356 69.1338 39.2185 75.6945 35.9659C80.1702 33.742 85.8691 34.1033 89.4275 37.8285C94.1812 42.7768 92.5688 51.5893 90.6785 57.2882C89.5387 60.7354 87.9263 64.0713 86.0637 67.2683C84.2011 70.4931 82.0606 73.5788 79.781 76.609C82.7278 74.2182 85.3965 71.466 87.7595 68.4359C91.3179 63.9045 94.348 58.567 95.6268 52.8959C97.962 43.3884 94.5426 31.5458 83.1726 30.7396C76.6119 30.267 69.6619 33.9087 67.4102 40.3027C65.9368 44.4726 66.0202 49.2819 66.8542 53.5909ZM71.2743 24.2345C70.4959 24.5403 69.6063 24.1789 69.2728 23.4005C69.2728 23.4005 67.4658 19.5086 64.7414 9.0559C70.0511 18.4522 72.1361 22.2607 72.1361 22.2607C72.4419 23.0391 72.0527 23.9287 71.2743 24.2345ZM60.5993 29.4886C61.1831 30.0724 62.1561 30.1002 62.7677 29.5164C63.3792 28.9326 63.3792 27.9596 62.7955 27.3758C62.7955 27.3758 55.7343 20.2591 47.3111 13.5316C53.7606 22.2051 60.5993 29.4886 60.5993 29.4886ZM57.9583 38.9961C57.6247 39.7745 56.7074 40.1081 55.929 39.7745C55.929 39.7745 51.4532 37.4671 42.2515 31.8516C52.593 34.9373 57.1799 36.9945 57.1799 36.9945C57.9305 37.3281 58.2919 38.2455 57.9583 38.9961ZM54.1776 50.4774C55.0116 50.5052 55.7344 49.838 55.7622 49.004C55.79 48.17 55.1228 47.4472 54.261 47.4194C54.261 47.4194 42.891 47.197 32.1325 48.2256C42.7798 49.977 54.1776 50.4774 54.1776 50.4774ZM90.6506 24.2345C91.429 24.5403 92.3186 24.1789 92.6522 23.4005C92.6522 23.4005 94.4592 19.5086 97.1836 9.0559C91.8738 18.4522 89.8167 22.2607 89.8167 22.2607C89.4831 23.0391 89.8723 23.9287 90.6506 24.2345ZM101.354 29.4886C100.77 30.0724 99.7967 30.1002 99.1852 29.5164C98.5736 28.9326 98.5458 27.9596 99.1574 27.3758C99.1574 27.3758 106.218 20.2591 114.642 13.5316C108.192 22.2051 101.354 29.4886 101.354 29.4886ZM103.995 38.9961C104.328 39.7745 105.246 40.1081 106.024 39.7745C106.024 39.7745 110.5 37.4671 119.701 31.8516C109.36 34.9373 104.773 36.9945 104.773 36.9945C103.995 37.3281 103.633 38.2455 103.995 38.9961ZM107.748 50.4774C106.914 50.5052 106.191 49.838 106.163 49.004C106.135 48.17 106.802 47.4472 107.664 47.4194C107.664 47.4194 119.034 47.197 129.793 48.2256C119.145 49.977 107.748 50.4774 107.748 50.4774ZM84.924 163.761C84.924 163.761 133.295 184.889 148.585 162.371C163.875 139.853 107.72 121.505 107.72 121.505C107.72 121.505 171.381 135.683 160.817 164.873C149.141 192.394 92.9859 173.213 84.924 163.761ZM16.2589 165.707C4.86103 147.915 47.9505 128.733 47.9505 128.733C28.4907 133.181 -9.87277 151.251 2.35907 171.267C14.5909 191.282 74.6381 176.827 103.828 145.413C70.7461 170.433 27.6567 183.499 16.2589 165.707ZM80.4761 81.752C80.4761 81.752 107.164 58.1223 118.006 73.9681C128.847 89.8139 109.944 104.548 97.1559 112.054L96.6161 112.37C83.536 120.044 54.005 137.369 49.6185 158.479C50.2699 155.374 54.7877 151.082 58.0595 147.974L58.0598 147.974C58.9769 147.102 59.7961 146.324 60.4048 145.691C63.9909 141.938 67.7995 138.38 71.8026 135.099C78.7247 129.401 86.2028 124.48 93.9589 120.004C96.8559 118.344 99.9201 116.769 103.022 115.174L103.022 115.174C111.916 110.603 121.117 105.873 127.569 98.5151C137.91 86.7003 137.021 69.1309 120.202 65.378C105.273 61.9864 89.3998 69.9093 80.4761 81.752ZM64.2689 70.6321C67.8799 72.7432 73.073 75.9089 74.6344 80.0739C74.3376 79.2923 72.9549 78.3608 71.9317 77.6713C71.574 77.4303 71.2601 77.2189 71.052 77.0538C68.2998 74.9132 65.3253 72.9951 62.1561 71.4661C56.5962 68.7973 49.8687 67.2127 44.1141 70.2429C35.3851 74.8298 33.6615 86.2833 36.4136 94.9846C38.6098 101.962 43.8639 107.439 49.4517 111.942C52.2038 114.166 55.1228 116.223 58.0418 118.253C58.8905 118.849 59.765 119.577 60.6572 120.321C62.2196 121.622 63.8363 122.968 65.4643 123.729C65.3669 123.688 65.2627 123.639 65.1584 123.59C65.0542 123.542 64.9499 123.493 64.8527 123.451C53.2602 117.975 40.9728 111.553 33.1333 101.073C28.7687 95.207 26.4892 88.1181 27.8236 80.8346C29.3803 72.3001 36.7472 65.6004 45.4485 65.2112C52.037 64.9054 58.6533 67.3517 64.2689 70.6321Z" fill="#FE3700"/>
</svg>
